<svg width="32" height="69" viewBox="0 0 32 69" fill="none" xmlns="http://www.w3.org/2000/svg">
<path d="M4.22558 49C3.85471 49 3.47696 48.9286 3.11249 48.7779C1.6245 48.1626 0.916684 46.4573 1.53196 44.9691L11.5246 20.8026C12.1401 19.3146 13.8443 18.6065 15.3335 19.2221C16.8217 19.8373 17.5295 21.5427 16.914 23.0311L6.92158 47.1974C6.45698 48.3214 5.3707 49 4.22558 49Z" fill="#F7F8FA"/>
<path d="M27.773 49C26.6279 49 25.5419 48.3216 25.0773 47.1974L20.6543 36.5016C20.0386 35.0134 20.7466 33.3081 22.2346 32.6926C23.724 32.077 25.4284 32.7851 26.0437 34.2731L30.4667 44.9691C31.0819 46.4573 30.3741 48.1626 28.8859 48.7779C28.5214 48.9286 28.1439 49 27.773 49Z" fill="#F7F8FA"/>
<path d="M20.192 30.6724C19.4259 30.6724 18.6758 30.3599 18.1305 29.8184C17.9969 29.681 17.8762 29.531 17.768 29.3725C17.6638 29.2143 17.5722 29.0477 17.501 28.8685C17.4263 28.6937 17.3719 28.5105 17.3347 28.3228C17.2972 28.1356 17.2761 27.9439 17.2761 27.7564C17.2761 27.5647 17.2972 27.3732 17.3347 27.1855C17.3719 26.9983 17.4263 26.8151 17.501 26.6398C17.5722 26.4649 17.6638 26.2943 17.768 26.1358C17.8762 25.9775 17.9969 25.8278 18.1305 25.6942C18.2634 25.5568 18.4136 25.436 18.5757 25.3319C18.7301 25.2237 18.901 25.1361 19.0759 25.0611C19.2548 24.9902 19.4382 24.932 19.6219 24.8943C20.5712 24.7071 21.5794 25.0153 22.254 25.6942C22.7957 26.2359 23.108 26.9897 23.108 27.7564C23.108 27.9439 23.0874 28.1356 23.0499 28.3228C23.0126 28.5105 22.9583 28.6937 22.8835 28.8685C22.8123 29.0477 22.7208 29.2143 22.6168 29.3725C22.5124 29.531 22.3876 29.681 22.254 29.8184C21.7128 30.3599 20.9589 30.6724 20.192 30.6724Z" fill="#F5C200"/>
<path d="M22.8388 38.3035H8.64931C7.03864 38.3035 5.73312 36.9979 5.73312 35.3873C5.73312 33.7768 7.03864 32.4713 8.64931 32.4713H22.8388C24.4494 32.4713 25.7547 33.7768 25.7547 35.3873C25.7547 36.9979 24.4494 38.3035 22.8388 38.3035Z" fill="#F7F8FA"/>
</svg>
