<svg width="18" height="27" viewBox="0 0 18 27" fill="none" xmlns="http://www.w3.org/2000/svg">
<path d="M4.76328 21.4138V6.65309H10.3313C11.3113 6.65309 12.0597 6.70007 12.5766 6.79405C13.3015 6.91487 13.909 7.14645 14.399 7.48879C14.889 7.82441 15.2817 8.29764 15.5771 8.90847C15.8791 9.51931 16.0301 10.1906 16.0301 10.9222C16.0301 12.1774 15.6308 13.2414 14.832 14.114C14.0332 14.9799 12.59 15.4129 10.5024 15.4129H6.7166V21.4138H4.76328ZM6.7166 12.671C6.7166 13.2233 7.16432 13.671 7.7166 13.671H10.5326C11.7946 13.671 12.6907 13.436 13.221 12.9662C13.7513 12.4963 14.0164 11.8351 14.0164 10.9826C14.0164 10.3651 13.8587 9.83815 13.5432 9.40184C13.2344 8.95882 12.8249 8.66683 12.3148 8.52586C11.9859 8.4386 11.3784 8.39497 10.4924 8.39497H7.7166C7.16432 8.39497 6.7166 8.84269 6.7166 9.39497V12.671Z" fill="#1F2E44"/>
<path d="M2.37931 4.75862C1.75413 4.75862 1.14212 4.50363 0.697201 4.06181C0.588196 3.94971 0.489647 3.82735 0.40136 3.69802C0.316364 3.56888 0.241629 3.43296 0.183545 3.28679C0.122557 3.1441 0.0782196 2.99463 0.0478224 2.84148C0.0172315 2.68872 0 2.53229 0 2.37934C0 2.2229 0.0172315 2.06665 0.0478224 1.91351C0.0782196 1.76075 0.122557 1.61128 0.183545 1.4682C0.241629 1.32551 0.316364 1.18631 0.40136 1.05697C0.489647 0.927835 0.588196 0.805666 0.697201 0.696664C0.805624 0.584563 0.928181 0.486015 1.06042 0.40102C1.18646 0.312734 1.32586 0.241292 1.46855 0.18011C1.61454 0.122221 1.7642 0.0747862 1.91406 0.0440021C2.6887 -0.108757 3.51137 0.142743 4.06181 0.696664C4.50383 1.13868 4.75862 1.75378 4.75862 2.37934C4.75862 2.53229 4.74178 2.68872 4.71119 2.84148C4.68079 2.99463 4.63645 3.1441 4.57546 3.28679C4.51738 3.43296 4.44264 3.56888 4.35784 3.69802C4.27265 3.82735 4.17081 3.94971 4.06181 4.06181C3.62018 4.50363 3.00507 4.75862 2.37931 4.75862Z" fill="#F5C200"/>
</svg>
