<svg width="37" height="69" viewBox="0 0 37 69" fill="none" xmlns="http://www.w3.org/2000/svg">
<path d="M10.2322 50V18.2918H22.1931C24.2983 18.2918 25.9061 18.3927 27.0163 18.5946C28.5736 18.8542 29.8786 19.3516 30.9312 20.087C31.9838 20.808 32.8274 21.8246 33.4618 23.1367C34.1107 24.4489 34.4351 25.8908 34.4351 27.4625C34.4351 30.1589 33.5772 32.4444 31.8613 34.3189C30.1453 36.179 27.0452 37.1091 22.5608 37.1091H14.4282V50H10.2322ZM14.4282 30.3673C14.4282 32.0241 15.7714 33.3673 17.4282 33.3673H22.6257C25.3365 33.3673 27.2615 32.8626 28.4006 31.8532C29.5397 30.8439 30.1093 29.4236 30.1093 27.5923C30.1093 26.2657 29.7704 25.1338 29.0927 24.1965C28.4294 23.2449 27.5499 22.6176 26.454 22.3148C25.7474 22.1274 24.4425 22.0336 22.5391 22.0336H17.4282C15.7714 22.0336 14.4282 23.3768 14.4282 25.0336V30.3673Z" fill="#1F2E44"/>
<path d="M5.11111 14.2222C3.76814 14.2222 2.45345 13.6745 1.49769 12.7254C1.26353 12.4846 1.05184 12.2217 0.86218 11.9439C0.679596 11.6665 0.519055 11.3745 0.394282 11.0605C0.263271 10.754 0.168027 10.4329 0.10273 10.1039C0.0370158 9.77579 0 9.43974 0 9.11118C0 8.77513 0.0370158 8.43949 0.10273 8.11051C0.168027 7.78236 0.263271 7.46128 0.394282 7.15393C0.519055 6.84741 0.679596 6.54837 0.86218 6.27055C1.05184 5.99314 1.26353 5.7307 1.49769 5.49655C1.7306 5.25574 1.99387 5.04405 2.27794 4.86146C2.54869 4.67181 2.84815 4.51834 3.15467 4.38692C3.46827 4.26256 3.78977 4.16067 4.11168 4.09454C5.77573 3.76639 7.54293 4.30665 8.72536 5.49655C9.67489 6.44606 10.2222 7.76739 10.2222 9.11118C10.2222 9.43974 10.186 9.77579 10.1203 10.1039C10.055 10.4329 9.95978 10.754 9.82877 11.0605C9.704 11.3745 9.54346 11.6665 9.36129 11.9439C9.17829 12.2217 8.95952 12.4846 8.72536 12.7254C7.77668 13.6745 6.45533 14.2222 5.11111 14.2222Z" fill="#F5C200"/>
</svg>
