<svg width="18" height="27" viewBox="0 0 18 27" fill="none" xmlns="http://www.w3.org/2000/svg">
<path d="M4.76328 21.4138V6.65308H10.3313C11.3113 6.65308 12.0597 6.70006 12.5766 6.79404C13.3015 6.91486 13.909 7.14644 14.399 7.48878C14.889 7.8244 15.2817 8.29763 15.5771 8.90846C15.8791 9.5193 16.0301 10.1905 16.0301 10.9222C16.0301 12.1774 15.6308 13.2414 14.832 14.114C14.0332 14.9799 12.59 15.4128 10.5024 15.4128H6.7166V21.4138H4.76328ZM6.7166 12.671C6.7166 13.2232 7.16432 13.671 7.7166 13.671H10.5326C11.7946 13.671 12.6907 13.436 13.221 12.9661C13.7513 12.4963 14.0164 11.8351 14.0164 10.9826C14.0164 10.3651 13.8587 9.83814 13.5432 9.40183C13.2344 8.95881 12.8249 8.66682 12.3148 8.52585C11.9859 8.43859 11.3784 8.39496 10.4924 8.39496H7.7166C7.16432 8.39496 6.7166 8.84268 6.7166 9.39496V12.671Z" fill="#4886FD"/>
<path d="M2.37931 4.75861C1.75413 4.75861 1.14212 4.50362 0.697201 4.0618C0.588196 3.9497 0.489647 3.82734 0.40136 3.69801C0.316364 3.56887 0.241629 3.43295 0.183545 3.28678C0.122557 3.14409 0.0782196 2.99462 0.0478224 2.84147C0.0172315 2.68871 0 2.53228 0 2.37932C0 2.22289 0.0172315 2.06664 0.0478224 1.9135C0.0782196 1.76074 0.122557 1.61127 0.183545 1.46819C0.241629 1.3255 0.316364 1.18629 0.40136 1.05696C0.489647 0.927824 0.588196 0.805655 0.697201 0.696652C0.805624 0.584552 0.928181 0.486004 1.06042 0.401009C1.18646 0.312722 1.32586 0.24128 1.46855 0.180099C1.61454 0.122209 1.7642 0.0747747 1.91406 0.0439906C2.6887 -0.108768 3.51137 0.142732 4.06181 0.696652C4.50383 1.13867 4.75862 1.75377 4.75862 2.37932C4.75862 2.53228 4.74178 2.68871 4.71119 2.84147C4.68079 2.99462 4.63645 3.14409 4.57546 3.28678C4.51738 3.43295 4.44264 3.56887 4.35784 3.69801C4.27265 3.82734 4.17081 3.9497 4.06181 4.0618C3.62018 4.50362 3.00507 4.75861 2.37931 4.75861Z" fill="#F5C200"/>
</svg>
