<svg width="24" height="24" viewBox="0 0 24 24" fill="none" xmlns="http://www.w3.org/2000/svg">
<path fill-rule="evenodd" clip-rule="evenodd" d="M6.18903 6C6.85509 3.41216 9.20424 1.5 12 1.5C14.7958 1.5 17.1448 3.41217 17.811 6.00002H19.5C21.1569 6.00002 22.5 7.34316 22.5 9.00002V19.5C22.5 21.1569 21.1569 22.5 19.5 22.5H4.5C2.84314 22.5 1.5 21.1569 1.5 19.5V9C1.5 7.34314 2.84314 6 4.5 6H6.18903ZM9.40134 6C9.92006 5.1033 10.8896 4.5 12 4.5C13.1104 4.5 14.0799 5.1033 14.5987 6.00002L9.40134 6ZM6 9V10.5C6 11.3284 6.67157 12 7.5 12C8.32842 12 9 11.3284 9 10.5V9L15 9.00002V10.5C15 11.3284 15.6715 12 16.5 12C17.3285 12 18 11.3284 18 10.5V9.00002H19.5V19.5H4.5V9H6Z" fill="#1F2E44"/>
</svg>
