<svg width="24" height="24" viewBox="0 0 24 24" fill="none" xmlns="http://www.w3.org/2000/svg">
<path fill-rule="evenodd" clip-rule="evenodd" d="M9.97398 3.25191C10.6633 3.71142 10.8495 4.64271 10.39 5.33199L8.94473 7.49991L15.339 7.4999L13.8937 5.3321C13.4342 4.6428 13.6205 3.71151 14.3098 3.252C14.9991 2.79249 15.9305 2.97875 16.3899 3.66803L18.9445 7.4999H19.3169C21.11 7.4999 22.5027 9.06249 22.2971 10.8438L21.2586 19.8438C21.084 21.3576 19.8022 22.4998 18.2784 22.4998H5.72141C4.19759 22.4998 2.91584 21.3576 2.74118 19.8438L1.70271 10.8438C1.49718 9.06251 2.88984 7.49991 4.68294 7.49991H5.33916L7.89381 3.66797C8.35335 2.97869 9.28467 2.7924 9.97398 3.25191ZM18.1235 10.4999C18.1367 10.5001 18.1498 10.5001 18.163 10.4999H19.3169L18.2784 19.4998H5.72141L4.68294 10.4999H6.12074C6.13394 10.5001 6.14715 10.5001 6.16034 10.4999L18.1235 10.4999Z" fill="#1F2E44"/>
</svg>
