<svg width="24" height="24" viewBox="0 0 24 24" fill="none" xmlns="http://www.w3.org/2000/svg">
<path d="M20.5569 5.58229L14.1392 12L20.5569 18.4177C21.1477 19.0084 21.1477 19.9662 20.5569 20.5569C19.9662 21.1477 19.0084 21.1477 18.4177 20.5569L12 14.1392L5.58229 20.5569C4.99155 21.1477 4.03379 21.1477 3.44305 20.5569C2.85232 19.9662 2.85232 19.0084 3.44305 18.4177L9.86076 12L3.44305 5.58229C2.85232 4.99155 2.85232 4.03379 3.44305 3.44305C4.03378 2.85232 4.99155 2.85232 5.58229 3.44305L12 9.86076L18.4177 3.44305C19.0084 2.85232 19.9662 2.85232 20.5569 3.44305C21.1477 4.03379 21.1477 4.99155 20.5569 5.58229Z" fill="#F7F8FA"/>
</svg>
