<svg width="16" height="16" viewBox="0 0 16 16" fill="none" xmlns="http://www.w3.org/2000/svg">
<path d="M13.7046 3.72153L9.42616 8L13.7046 12.2785C14.0985 12.6723 14.0985 13.3108 13.7046 13.7046C13.3108 14.0985 12.6723 14.0985 12.2785 13.7046L8 9.42616L3.72153 13.7046C3.3277 14.0985 2.68919 14.0985 2.29537 13.7046C1.90154 13.3108 1.90154 12.6723 2.29537 12.2785L6.57384 8L2.29537 3.72153C1.90154 3.3277 1.90154 2.68919 2.29537 2.29537C2.68919 1.90154 3.3277 1.90154 3.72153 2.29537L8 6.57384L12.2785 2.29537C12.6723 1.90154 13.3108 1.90154 13.7046 2.29537C14.0985 2.68919 14.0985 3.3277 13.7046 3.72153Z" fill="#2E75FF"/>
</svg>
