<svg width="24" height="24" viewBox="0 0 24 24" fill="none" xmlns="http://www.w3.org/2000/svg">
<path d="M24 0H0V24H24V0Z" fill="white"/>
<path d="M10.6715 6.85324C10.1884 6.42487 9.48541 6.35368 8.92627 6.67651C8.36713 6.99933 8.07729 7.64372 8.20672 8.27626L9.18876 13.0752C9.25383 13.3932 9.42027 13.6815 9.6631 13.8968L13.3281 17.1468C13.8112 17.5752 14.5142 17.6463 15.0734 17.3235C15.6324 17.0007 15.9224 16.3563 15.7929 15.7237L14.8108 10.9248C14.7458 10.6068 14.5793 10.3185 14.3365 10.1032L10.6715 6.85324Z" fill="#1D6AFE"/>
<path fill-rule="evenodd" clip-rule="evenodd" d="M12 1.5C6.20101 1.5 1.5 6.20101 1.5 12C1.5 17.799 6.20101 22.5 12 22.5C17.799 22.5 22.5 17.799 22.5 12C22.5 6.20101 17.799 1.5 12 1.5ZM4.5 12C4.5 7.85787 7.85787 4.5 12 4.5C16.1421 4.5 19.5 7.85787 19.5 12C19.5 16.1421 16.1421 19.5 12 19.5C7.85787 19.5 4.5 16.1421 4.5 12Z" fill="#1D6AFE"/>
</svg>
