<svg width="16" height="27" viewBox="0 0 16 27" fill="none" xmlns="http://www.w3.org/2000/svg">
<path fill-rule="evenodd" clip-rule="evenodd" d="M8.64019 7.76825L14.6402 2.76825C15.0645 2.41468 15.1218 1.78412 14.7682 1.35987C14.4147 0.935551 13.7841 0.878239 13.3598 1.23182L8 5.69831L2.64022 1.23182C2.21593 0.878239 1.58533 0.935551 1.23183 1.35987C0.878227 1.78412 0.935528 2.41468 1.35983 2.76825L7.35981 7.76825C7.73067 8.07727 8.26934 8.07727 8.64019 7.76825ZM14.6402 8.76825L8.64019 13.7683C8.26934 14.0773 7.73067 14.0773 7.35981 13.7683L1.35983 8.76825C0.935528 8.41468 0.878227 7.78412 1.23183 7.35987C1.58533 6.93555 2.21593 6.87824 2.64022 7.23182L8 11.6983L13.3598 7.23182C13.7841 6.87824 14.4147 6.93555 14.7682 7.35987C15.1218 7.78412 15.0645 8.41468 14.6402 8.76825ZM8.64016 19.7683L14.6402 14.7683C15.0644 14.4147 15.1218 13.7841 14.7682 13.3599C14.4146 12.9356 13.7841 12.8782 13.3598 13.2318L7.99997 17.6983L2.64019 13.2318C2.2159 12.8782 1.5853 12.9356 1.2318 13.3599C0.878197 13.7841 0.935497 14.4147 1.35979 14.7683L7.35978 19.7683C7.73064 20.0773 8.26931 20.0773 8.64016 19.7683ZM8.64016 25.7682L14.6402 20.7683C15.0644 20.4147 15.1218 19.7841 14.7682 19.3599C14.4146 18.9356 13.7841 18.8782 13.3598 19.2318L7.99997 23.6983L2.64019 19.2318C2.2159 18.8782 1.5853 18.9356 1.2318 19.3599C0.878197 19.7841 0.935497 20.4147 1.35979 20.7683L7.35978 25.7682C7.73064 26.0773 8.26931 26.0773 8.64016 25.7682Z" fill="url(#paint0_linear)"/>
<defs>
<linearGradient id="paint0_linear" x1="7.99999" y1="1" x2="7.99999" y2="26" gradientUnits="userSpaceOnUse">
<stop stop-color="#FFF500"/>
<stop offset="1" stop-color="#FF9900"/>
</linearGradient>
</defs>
</svg>
