<svg width="15" height="19" viewBox="0 0 15 19" fill="none" xmlns="http://www.w3.org/2000/svg">
<path d="M4.22633 19V5.90314H9.16669C10.0362 5.90314 10.7003 5.94483 11.1589 6.02821C11.8021 6.13541 12.3411 6.34089 12.7759 6.64464C13.2107 6.94243 13.5591 7.36231 13.8212 7.90429C14.0892 8.44627 14.2232 9.04186 14.2232 9.69104C14.2232 10.8048 13.8688 11.7488 13.1601 12.523C12.4513 13.2913 11.1708 13.6755 9.31856 13.6755H5.95948V19H4.22633ZM5.95948 10.8908C5.95948 11.5752 6.51426 12.13 7.19861 12.13H9.34537C10.4651 12.13 11.2602 11.9215 11.7307 11.5046C12.2012 11.0877 12.4364 10.501 12.4364 9.74465C12.4364 9.19671 12.2965 8.72918 12.0166 8.34205C11.7426 7.94896 11.3793 7.68989 10.9266 7.56481C10.6348 7.48739 10.0958 7.44867 9.30963 7.44867H7.19861C6.51426 7.44867 5.95948 8.00345 5.95948 8.6878V10.8908Z" fill="#F7F8FA"/>
<path d="M2.11111 4.22223C1.55641 4.22223 1.01338 3.99599 0.618611 3.60397C0.521894 3.5045 0.434454 3.39593 0.356118 3.28118C0.280703 3.1666 0.214392 3.04601 0.162856 2.91631C0.108742 2.7897 0.0694026 2.65708 0.0424318 2.5212C0.0152892 2.38566 0 2.24685 0 2.11114C0 1.97234 0.0152892 1.83371 0.0424318 1.69782C0.0694026 1.56228 0.108742 1.42966 0.162856 1.30271C0.214392 1.17611 0.280703 1.05259 0.356118 0.937839C0.434454 0.823258 0.521894 0.71486 0.618611 0.618144C0.714813 0.51868 0.823555 0.43124 0.940887 0.355826C1.05272 0.277491 1.17641 0.214102 1.30302 0.159817C1.43255 0.108453 1.56534 0.0663657 1.6983 0.0390515C2.38563 -0.0964885 3.11556 0.126662 3.60396 0.618144C3.99615 1.01033 4.22222 1.5561 4.22222 2.11114C4.22222 2.24685 4.20728 2.38566 4.18013 2.5212C4.15316 2.65708 4.11382 2.7897 4.05971 2.91631C4.00817 3.04601 3.94186 3.1666 3.86662 3.28118C3.79103 3.39593 3.70067 3.5045 3.60396 3.60397C3.21211 3.99599 2.66633 4.22223 2.11111 4.22223Z" fill="#F5C200"/>
</svg>
