<svg width="14" height="14" viewBox="0 0 14 14" fill="none" xmlns="http://www.w3.org/2000/svg">
<path d="M1.36062 14C1.18755 14 1.01126 13.9667 0.841177 13.8964C0.146779 13.6092 -0.183533 12.8134 0.103594 12.1189L4.76683 0.841208C5.05407 0.146811 5.84935 -0.183613 6.5443 0.103624C7.23881 0.390752 7.56912 1.18658 7.28188 1.8812L2.61875 13.1588C2.40194 13.6833 1.89501 14 1.36062 14Z" fill="#F7F8FA"/>
<path d="M12.3494 14C11.815 14 11.3082 13.6834 11.0914 13.1588L9.02738 8.16743C8.74003 7.47293 9.07045 6.6771 9.76485 6.38986C10.4599 6.10262 11.2553 6.43305 11.5424 7.12744L13.6065 12.1189C13.8936 12.8134 13.5633 13.6092 12.8688 13.8964C12.6987 13.9667 12.5225 14 12.3494 14Z" fill="#F7F8FA"/>
<path d="M8.81159 5.44714C8.45404 5.44714 8.10402 5.30131 7.84956 5.04862C7.78722 4.98451 7.73085 4.91452 7.68036 4.84056C7.63175 4.7667 7.58901 4.68896 7.55579 4.60536C7.52091 4.52375 7.49555 4.43827 7.47816 4.35068C7.46067 4.26331 7.45081 4.17384 7.45081 4.08636C7.45081 3.99689 7.46067 3.90753 7.47816 3.81994C7.49555 3.73258 7.52091 3.64709 7.55579 3.56526C7.58901 3.48365 7.63175 3.40403 7.68036 3.33007C7.73085 3.25621 7.78722 3.18634 7.84956 3.12399C7.91157 3.05988 7.98166 3.00352 8.05729 2.95491C8.12938 2.90441 8.2091 2.86355 8.29071 2.82856C8.3742 2.79545 8.4598 2.76832 8.54551 2.75072C8.98854 2.66335 9.45904 2.80719 9.77385 3.12399C10.0267 3.37679 10.1724 3.72859 10.1724 4.08636C10.1724 4.17384 10.1627 4.26331 10.1452 4.35068C10.1279 4.43827 10.1025 4.52375 10.0676 4.60536C10.0344 4.68896 9.99166 4.7667 9.94316 4.84056C9.89444 4.91452 9.83619 4.98451 9.77385 5.04862C9.52127 5.30131 9.16948 5.44714 8.81159 5.44714Z" fill="#F5C200"/>
<path d="M10.0467 9.0083H3.42499C2.67334 9.0083 2.06409 8.39906 2.06409 7.64741C2.06409 6.89587 2.67334 6.28663 3.42499 6.28663H10.0467C10.7984 6.28663 11.4075 6.89587 11.4075 7.64741C11.4075 8.39906 10.7984 9.0083 10.0467 9.0083Z" fill="#F7F8FA"/>
</svg>
