<svg width="32" height="32" viewBox="0 0 32 32" fill="none" xmlns="http://www.w3.org/2000/svg">
<path d="M7 2C4.23858 2 2 4.23858 2 7V9C2 9.55229 2.44772 10 3 10C3.55228 10 4 9.55229 4 9V7C4 5.34315 5.34315 4 7 4H9C9.55229 4 10 3.55228 10 3C10 2.44772 9.55229 2 9 2H7Z" fill="#6096FF"/>
<path d="M25 2C27.7614 2 30 4.23858 30 7V9C30 9.55229 29.5523 10 29 10C28.4477 10 28 9.55229 28 9V7C28 5.34315 26.6569 4 25 4H23C22.4477 4 22 3.55228 22 3C22 2.44772 22.4477 2 23 2H25Z" fill="#6096FF"/>
<path d="M2 25C2 27.7614 4.23858 30 7 30H9C9.55229 30 10 29.5523 10 29C10 28.4477 9.55229 28 9 28H7C5.34315 28 4 26.6569 4 25V23C4 22.4477 3.55228 22 3 22C2.44772 22 2 22.4477 2 23V25Z" fill="#6096FF"/>
<path d="M25 30C27.7614 30 30 27.7614 30 25V23C30 22.4477 29.5523 22 29 22C28.4477 22 28 22.4477 28 23V25C28 26.6569 26.6569 28 25 28H23C22.4477 28 22 28.4477 22 29C22 29.5523 22.4477 30 23 30H25Z" fill="#6096FF"/>
<rect x="17.5" y="17.5" width="1" height="1" stroke="#6096FF"/>
<rect x="22.5" y="17.5" width="1" height="1" stroke="#6096FF"/>
<rect x="22.5" y="22.5" width="1" height="1" stroke="#6096FF"/>
<rect x="19.75" y="19.75" width="1.5" height="1.5" stroke="#6096FF" stroke-width="1.5"/>
<mask id="path-9-inside-1" fill="white">
<path fill-rule="evenodd" clip-rule="evenodd" d="M10 8C8.89543 8 8 8.89543 8 10V13C8 14.1046 8.89543 15 10 15H13C14.1046 15 15 14.1046 15 13V10C15 8.89543 14.1046 8 13 8H10ZM10 10H11H12H13V11V12V13H12H11H10V12V11V10Z"/>
</mask>
<path fill-rule="evenodd" clip-rule="evenodd" d="M10 8C8.89543 8 8 8.89543 8 10V13C8 14.1046 8.89543 15 10 15H13C14.1046 15 15 14.1046 15 13V10C15 8.89543 14.1046 8 13 8H10ZM10 10H11H12H13V11V12V13H12H11H10V12V11V10Z" fill="#6096FF"/>
<path d="M10 10V8H8V10H10ZM13 10H15V8H13V10ZM13 13V15H15V13H13ZM10 13H8V15H10V13ZM10 10V10V6C7.79086 6 6 7.79086 6 10H10ZM10 13V10H6V13H10ZM10 13H10H6C6 15.2091 7.79086 17 10 17V13ZM13 13H10V17H13V13ZM13 13V17C15.2091 17 17 15.2091 17 13H13ZM13 10V13H17V10H13ZM13 10H17C17 7.79086 15.2091 6 13 6V10ZM10 10H13V6H10V10ZM11 8H10V12H11V8ZM12 8H11V12H12V8ZM13 8H12V12H13V8ZM15 11V10H11V11H15ZM15 12V11H11V12H15ZM15 13V12H11V13H15ZM12 15H13V11H12V15ZM11 15H12V11H11V15ZM10 15H11V11H10V15ZM8 12V13H12V12H8ZM8 11V12H12V11H8ZM8 10V11H12V10H8Z" fill="#6096FF" mask="url(#path-9-inside-1)"/>
<mask id="path-11-inside-2" fill="white">
<path fill-rule="evenodd" clip-rule="evenodd" d="M10 17C8.89543 17 8 17.8954 8 19V22C8 23.1046 8.89543 24 10 24H13C14.1046 24 15 23.1046 15 22V19C15 17.8954 14.1046 17 13 17H10ZM10 19H11H12H13V20V21V22H12H11H10V21V20V19Z"/>
</mask>
<path fill-rule="evenodd" clip-rule="evenodd" d="M10 17C8.89543 17 8 17.8954 8 19V22C8 23.1046 8.89543 24 10 24H13C14.1046 24 15 23.1046 15 22V19C15 17.8954 14.1046 17 13 17H10ZM10 19H11H12H13V20V21V22H12H11H10V21V20V19Z" fill="#6096FF"/>
<path d="M10 19V17H8V19H10ZM13 19H15V17H13V19ZM13 22V24H15V22H13ZM10 22H8V24H10V22ZM10 19V19V15C7.79086 15 6 16.7909 6 19H10ZM10 22V19H6V22H10ZM10 22H10H6C6 24.2091 7.79086 26 10 26V22ZM13 22H10V26H13V22ZM13 22V26C15.2091 26 17 24.2091 17 22H13ZM13 19V22H17V19H13ZM13 19H17C17 16.7909 15.2091 15 13 15V19ZM10 19H13V15H10V19ZM11 17H10V21H11V17ZM12 17H11V21H12V17ZM13 17H12V21H13V17ZM15 20V19H11V20H15ZM15 21V20H11V21H15ZM15 22V21H11V22H15ZM12 24H13V20H12V24ZM11 24H12V20H11V24ZM10 24H11V20H10V24ZM8 21V22H12V21H8ZM8 20V21H12V20H8ZM8 19V20H12V19H8Z" fill="#6096FF" mask="url(#path-11-inside-2)"/>
<mask id="path-13-inside-3" fill="white">
<path fill-rule="evenodd" clip-rule="evenodd" d="M19 8C17.8954 8 17 8.89543 17 10V13C17 14.1046 17.8954 15 19 15H22C23.1046 15 24 14.1046 24 13V10C24 8.89543 23.1046 8 22 8H19ZM19 10H20H21H22V11V12V13H21H20H19V12V11V10Z"/>
</mask>
<path fill-rule="evenodd" clip-rule="evenodd" d="M19 8C17.8954 8 17 8.89543 17 10V13C17 14.1046 17.8954 15 19 15H22C23.1046 15 24 14.1046 24 13V10C24 8.89543 23.1046 8 22 8H19ZM19 10H20H21H22V11V12V13H21H20H19V12V11V10Z" fill="#6096FF"/>
<path d="M19 10V8H17V10H19ZM22 10H24V8H22V10ZM22 13V15H24V13H22ZM19 13H17V15H19V13ZM19 10V10V6C16.7909 6 15 7.79086 15 10H19ZM19 13V10H15V13H19ZM19 13H19H15C15 15.2091 16.7909 17 19 17V13ZM22 13H19V17H22V13ZM22 13V17C24.2091 17 26 15.2091 26 13H22ZM22 10V13H26V10H22ZM22 10H26C26 7.79086 24.2091 6 22 6V10ZM19 10H22V6H19V10ZM20 8H19V12H20V8ZM21 8H20V12H21V8ZM22 8H21V12H22V8ZM24 11V10H20V11H24ZM24 12V11H20V12H24ZM24 13V12H20V13H24ZM21 15H22V11H21V15ZM20 15H21V11H20V15ZM19 15H20V11H19V15ZM17 12V13H21V12H17ZM17 11V12H21V11H17ZM17 10V11H21V10H17Z" fill="#6096FF" mask="url(#path-13-inside-3)"/>
<rect x="17.5" y="22.5" width="1" height="1" stroke="#6096FF"/>
</svg>
