<svg width="24" height="24" viewBox="0 0 24 24" fill="none" xmlns="http://www.w3.org/2000/svg">
<path fill-rule="evenodd" clip-rule="evenodd" d="M12 1.50018C12.8284 1.50018 13.5 2.17176 13.5 3.00018V11.3789L15.4394 9.43953C16.0251 8.85374 16.9749 8.85374 17.5606 9.43953C18.1464 10.0253 18.1464 10.9751 17.5606 11.5608L13.0607 16.0608C12.7794 16.3422 12.3978 16.5002 12 16.5002C11.6022 16.5002 11.2206 16.3422 10.9393 16.0608L6.43935 11.5608C5.85356 10.9751 5.85356 10.0253 6.43935 9.43952C7.02513 8.85374 7.97487 8.85374 8.56067 9.43953L10.5 11.3789V3.00018C10.5 2.17176 11.1716 1.50018 12 1.50018ZM3 12.0002C3.82842 12.0002 4.5 12.6717 4.5 13.5002V18.0002C4.5 18.8286 5.17158 19.5002 6 19.5002H18C18.8284 19.5002 19.5 18.8286 19.5 18.0002V13.5002C19.5 12.6717 20.1716 12.0002 21 12.0002C21.8284 12.0002 22.5 12.6717 22.5 13.5002V18.0002C22.5 20.4855 20.4853 22.5002 18 22.5002H6C3.51472 22.5002 1.5 20.4855 1.5 18.0002V13.5002C1.5 12.6717 2.17158 12.0002 3 12.0002Z" fill="#6096FF"/>
</svg>
