<svg width="25" height="24" viewBox="0 0 25 24" fill="none" xmlns="http://www.w3.org/2000/svg">
<path d="M13 9C11.3431 9 10 10.3431 10 12C10 13.6569 11.3431 15 13 15C14.6569 15 16 13.6569 16 12C16 10.3431 14.6569 9 13 9Z" fill="#4886FD"/>
<path fill-rule="evenodd" clip-rule="evenodd" d="M9.63211 3.86919C10.1275 2.48797 11.4484 1.5 13 1.5C14.5516 1.5 15.8725 2.48797 16.368 3.86919C17.6949 3.2428 19.3275 3.47822 20.4246 4.57538C21.5218 5.67256 21.7571 7.30517 21.1307 8.63211C22.5119 9.12747 23.5 10.4484 23.5 12C23.5 13.5516 22.5119 14.8725 21.1307 15.368C21.7571 16.6949 21.5218 18.3275 20.4246 19.4246C19.3275 20.5218 17.6949 20.7571 16.368 20.1307C15.8725 21.5119 14.5516 22.5 13 22.5C11.4484 22.5 10.1275 21.5119 9.63211 20.1307C8.30517 20.7571 6.67255 20.5218 5.57538 19.4246C4.4782 18.3275 4.2428 16.6949 4.86919 15.368C3.48799 14.8725 2.5 13.5516 2.5 12C2.5 10.4484 3.48797 9.12747 4.86919 8.63211C4.24282 7.30517 4.4782 5.67256 5.57538 4.57538C6.67255 3.47822 8.30517 3.2428 9.63211 3.86919ZM13 4.5C12.6814 4.5 12.4231 4.7583 12.4231 5.07693C12.4231 5.93501 11.8686 6.63757 11.1379 6.90463C10.9941 6.95721 10.853 7.01574 10.7151 7.07993C10.0093 7.40838 9.11972 7.30383 8.5126 6.6967C8.2873 6.47141 7.922 6.47141 7.6967 6.6967C7.47142 6.92197 7.47137 7.28726 7.6967 7.51262C8.30378 8.11973 8.4084 9.00933 8.07991 9.71517C8.01571 9.8531 7.95718 9.99414 7.90459 10.138C7.63753 10.8686 6.93501 11.4231 6.07693 11.4231C5.7583 11.4231 5.5 11.6814 5.5 12C5.5 12.3186 5.7583 12.5769 6.07693 12.5769C6.93501 12.5769 7.63753 13.1314 7.90459 13.862C7.95718 14.0059 8.01571 14.1469 8.07991 14.2849C8.40843 14.9907 8.30383 15.8804 7.6967 16.4874C7.47145 16.7127 7.47142 17.0779 7.6967 17.3032C7.922 17.5285 8.2873 17.5285 8.5126 17.3032C9.11974 16.6962 10.0093 16.5917 10.7152 16.9201C10.8531 16.9842 10.9941 17.0429 11.1379 17.0954C11.8686 17.3625 12.4231 18.0649 12.4231 18.9231C12.4231 19.2417 12.6814 19.5 13 19.5C13.3186 19.5 13.5769 19.2417 13.5769 18.9231C13.5769 18.0649 14.1314 17.3625 14.8621 17.0954C15.0059 17.0429 15.1469 16.9842 15.2848 16.9201C15.9907 16.5917 16.8802 16.6962 17.4874 17.3032C17.7127 17.5285 18.0779 17.5285 18.3032 17.3032C18.5285 17.0779 18.5285 16.7127 18.3032 16.4874C17.6962 15.8804 17.5915 14.9907 17.9201 14.2849C17.9844 14.1469 18.0429 14.0059 18.0954 13.862C18.3625 13.1314 19.0649 12.5769 19.9231 12.5769C20.2417 12.5769 20.5 12.3186 20.5 12C20.5 11.6814 20.2417 11.4231 19.9231 11.4231C19.0649 11.4231 18.3625 10.8686 18.0954 10.138C18.0429 9.99414 17.9844 9.8531 17.9201 9.71517C17.5917 9.00933 17.6962 8.11973 18.3032 7.51262C18.5285 7.28726 18.5285 6.92197 18.3032 6.6967C18.0779 6.47141 17.7127 6.47141 17.4874 6.6967C16.8802 7.30383 15.9907 7.40838 15.2849 7.07993C15.147 7.01574 15.0059 6.95721 14.8621 6.90463C14.1314 6.63757 13.5769 5.93501 13.5769 5.07693C13.5769 4.7583 13.3186 4.5 13 4.5Z" fill="#4886FD"/>
</svg>
