<svg width="101" height="16" viewBox="0 0 101 16" fill="none" xmlns="http://www.w3.org/2000/svg">
<path d="M8.34881 9.76726C8.76468 9.76726 9.04048 9.33701 8.86732 8.95856L7.56361 6.12377C7.35352 5.66666 7.14295 5.10162 6.93238 4.42674C6.72229 5.10162 6.5122 5.66666 6.30162 6.12377L4.99839 8.95856C4.82475 9.33701 5.10104 9.76726 5.5169 9.76726H8.34881ZM3.33829 12.5714L2.20677 15.0239C2.01779 15.4335 1.60816 15.6954 1.15728 15.6954C0.316436 15.6954 -0.242846 14.8267 0.104907 14.0617L5.88048 1.34828C6.29059 0.444607 7.57416 0.444607 7.98475 1.34828L13.7608 14.0617C14.1081 14.8267 13.5488 15.6954 12.7084 15.6954H12.6993C12.2475 15.6954 11.8369 15.432 11.6489 15.0215L10.5269 12.5738C10.338 12.1627 9.92785 11.8993 9.47601 11.8993H4.38778C3.9369 11.8993 3.52728 12.1617 3.33829 12.5714Z" fill="#1F2E44"/>
<path d="M16.373 12.2798C16.7918 12.2798 17.1976 12.4884 17.3918 12.8587C17.5045 13.0741 17.6878 13.2583 17.9415 13.4108C18.3473 13.6578 18.8438 13.7811 19.4313 13.7811C20.0256 13.7811 20.5259 13.6578 20.9317 13.4108C21.3893 13.1355 21.6176 12.7585 21.6176 12.2798C21.6176 11.9032 21.3596 11.5948 20.8454 11.3555C20.5403 11.2106 19.9748 11.0365 19.1483 10.8331C17.7127 10.4782 16.7265 10.1227 16.1898 9.76731C15.2909 9.16581 14.8415 8.25542 14.8415 7.03757C14.8415 6.16746 15.1168 5.42015 15.6679 4.7966C16.1682 4.23875 16.846 3.82912 17.7022 3.56771C18.26 3.40079 18.8366 3.31733 19.4313 3.31733C20.0328 3.31733 20.6094 3.40079 21.1605 3.56771C22.0234 3.82912 22.705 4.23875 23.2053 4.7966C23.3252 4.93234 23.4317 5.07384 23.5257 5.22062C24.026 6.0063 23.4274 7.03757 22.4959 7.03757C22.0791 7.03757 21.6761 6.83131 21.48 6.46341C21.3672 6.2514 21.1845 6.06961 20.9317 5.91708C20.5259 5.66334 20.0256 5.53623 19.4313 5.53623C18.8438 5.53623 18.3473 5.66334 17.9415 5.91708C17.4844 6.19289 17.2561 6.56606 17.2561 7.03757C17.2561 7.41458 17.5132 7.72636 18.0279 7.9729C18.3324 8.11776 18.8946 8.29188 19.7143 8.49477C21.1572 8.843 22.1467 9.19795 22.6834 9.56057C23.5823 10.163 24.0322 11.0691 24.0322 12.2798C24.0322 13.1575 23.7564 13.9082 23.2053 14.5313C22.705 15.0896 22.0234 15.4959 21.1605 15.7496C20.6094 15.9165 20.0328 16 19.4313 16C18.8366 16 18.26 15.9165 17.7022 15.7496C16.846 15.4959 16.1682 15.0896 15.6679 14.5313C15.5451 14.3927 15.4358 14.2473 15.3403 14.0958C14.8444 13.3082 15.4406 12.2798 16.3711 12.2798H16.373Z" fill="#1F2E44"/>
<path d="M26.8808 12.2798C27.2996 12.2798 27.7054 12.4884 27.8996 12.8587C28.0123 13.0741 28.1956 13.2583 28.4493 13.4108C28.8551 13.6578 29.3516 13.7811 29.9391 13.7811C30.5334 13.7811 31.0337 13.6578 31.44 13.4108C31.8971 13.1355 32.1254 12.7585 32.1254 12.2798C32.1254 11.9032 31.8674 11.5948 31.3532 11.3555C31.0481 11.2106 30.4826 11.0365 29.6566 10.8331C28.2205 10.4782 27.2343 10.1227 26.6981 9.76731C25.7987 9.16581 25.3493 8.25542 25.3493 7.03757C25.3493 6.16746 25.6246 5.42015 26.1757 4.7966C26.676 4.23875 27.3538 3.82912 28.21 3.56771C28.7678 3.40079 29.3444 3.31733 29.9391 3.31733C30.5411 3.31733 31.1172 3.40079 31.6688 3.56771C32.5317 3.82912 33.2128 4.23875 33.7131 4.7966C33.833 4.93234 33.9395 5.07384 34.0335 5.22062C34.5338 6.0063 33.9352 7.03757 33.0037 7.03757C32.5869 7.03757 32.1839 6.83131 31.9878 6.46341C31.875 6.2514 31.6923 6.06961 31.44 5.91708C31.0337 5.66334 30.5334 5.53623 29.9391 5.53623C29.3516 5.53623 28.8551 5.66334 28.4493 5.91708C27.9922 6.19289 27.7639 6.56606 27.7639 7.03757C27.7639 7.41458 28.021 7.72636 28.5357 7.9729C28.8402 8.11776 29.4024 8.29188 30.2221 8.49477C31.6649 8.843 32.655 9.19795 33.1912 9.56057C34.0906 10.163 34.54 11.0691 34.54 12.2798C34.54 13.1575 34.2642 13.9082 33.7131 14.5313C33.2128 15.0896 32.5317 15.4959 31.6688 15.7496C31.1172 15.9165 30.5411 16 29.9391 16C29.3444 16 28.7678 15.9165 28.21 15.7496C27.3538 15.4959 26.676 15.0896 26.1757 14.5313C26.0529 14.3927 25.9436 14.2473 25.8481 14.0958C25.3522 13.3082 25.9484 12.2798 26.8789 12.2798H26.8808Z" fill="#1F2E44"/>
<path d="M38.239 10.4094L44.6669 6.70072C44.464 6.52613 44.2501 6.37408 44.0251 6.24313C43.4308 5.90977 42.7857 5.74284 42.0892 5.74284C40.9265 5.74284 39.9504 6.17789 39.1604 7.04752C38.6841 7.57274 38.3541 8.2318 38.2289 8.9297C38.1388 9.43766 38.1397 9.93027 38.239 10.4094ZM45.4281 15.1734C44.3844 15.7241 43.2711 15.9999 42.0892 15.9999C40.3342 15.9999 38.8405 15.3835 37.6078 14.1508C36.3679 12.9109 35.7481 11.4139 35.7481 9.65926C35.7481 7.91138 36.3679 6.41772 37.6078 5.1778C38.8405 3.93741 40.3342 3.31769 42.0892 3.31769C43.1987 3.31769 44.2391 3.59349 45.2109 4.14366C46.1826 4.69575 46.9544 5.45313 47.5276 6.41772L48.1584 7.46146L39.4027 12.519C40.1567 13.2303 41.0522 13.5853 42.0892 13.5853C42.8576 13.5853 43.5757 13.4184 44.2429 13.085C44.9168 12.7444 45.468 12.2729 45.8958 11.6714L47.9627 12.9109C47.317 13.8683 46.4728 14.6218 45.4281 15.1734Z" fill="#1F2E44"/>
<path d="M51.499 3.62253V4.36217C52.1949 3.6657 53.1629 3.31747 54.4028 3.31747C56.0634 3.31747 57.3757 3.91944 58.3403 5.12291C58.5063 5.34067 58.6593 5.57283 58.797 5.81937C59.4349 4.1516 60.7036 3.31747 62.6035 3.31747C64.2718 3.31747 65.5875 3.91944 66.5521 5.12291C67.4659 6.26929 67.9225 7.7807 67.9225 9.65904V14.4878C67.9225 15.155 67.3819 15.6956 66.7152 15.6956C66.0485 15.6956 65.5079 15.155 65.5079 14.4878V9.65904C65.5079 8.33135 65.2287 7.32023 64.6704 6.62424C64.1922 6.02994 63.5024 5.73207 62.6035 5.73207C61.7119 5.73207 61.0269 6.02994 60.5482 6.62424C59.9894 7.32023 59.7107 8.33135 59.7107 9.65904V14.4878C59.7107 15.155 59.1701 15.6956 58.5034 15.6956C57.8367 15.6956 57.2961 15.155 57.2961 14.4878V9.65904C57.2961 8.33135 57.017 7.32023 56.4582 6.62424C55.9799 6.02994 55.2945 5.73207 54.4028 5.73207C53.5039 5.73207 52.8147 6.02994 52.336 6.62424C51.7776 7.32023 51.499 8.32847 51.499 9.64801V14.4878C51.499 15.155 50.9584 15.6956 50.2912 15.6956C49.6249 15.6956 49.0844 15.155 49.0844 14.4878V4.82984C49.0844 4.16311 49.6249 3.62253 50.2912 3.62253H51.499Z" fill="#1F2E44"/>
<path d="M78.8592 6.95626C78.1335 6.1984 77.107 5.75231 76.0575 5.74368C74.7409 5.73169 73.6621 6.27322 72.8198 7.36829C72.3354 7.99808 72.0898 8.78328 72.0898 9.57712C72.0898 10.4837 72.3502 11.3921 72.9258 12.0929C73.7504 13.0969 74.7917 13.5947 76.0508 13.5852C77.0993 13.5775 78.1277 13.1338 78.8539 12.3774C79.5797 11.6219 79.9423 10.7153 79.9423 9.65914C79.9423 8.61156 79.5811 7.71076 78.8592 6.95626ZM72.0898 0.00024128V5.09039C73.1661 3.78092 74.6564 3.19669 76.5621 3.33819C77.8826 3.43652 79.1566 3.97278 80.1485 4.85008C81.6211 6.15139 82.3574 7.75489 82.3574 9.65914C82.3574 11.4137 81.7372 12.9107 80.4972 14.1507C79.2568 15.3834 77.7632 15.9998 76.0158 15.9998C74.3696 15.9998 73.0606 15.4127 72.0898 14.238V15.6957H69.6752V0.00024128H72.0898Z" fill="#1F2E44"/>
<path d="M86.6326 1.20778V14.4881C86.6326 15.1548 86.0921 15.6954 85.4249 15.6954C84.7586 15.6954 84.218 15.1548 84.218 14.4881V1.20778C84.218 0.540568 84.7586 -7.62939e-06 85.4249 -7.62939e-06C86.0921 -7.62939e-06 86.6326 0.540568 86.6326 1.20778Z" fill="#1F2E44"/>
<path d="M90.8759 10.4094L97.3034 6.70072C97.1009 6.52613 96.886 6.37408 96.662 6.24313C96.0673 5.90977 95.4221 5.74284 94.7257 5.74284C93.6383 5.74284 92.7135 6.12369 91.9523 6.88491C91.1839 7.65429 90.7997 8.57859 90.7997 9.65926C90.7997 9.913 90.8246 10.1629 90.8759 10.4094ZM98.0646 15.1734C97.0204 15.7241 95.9071 15.9999 94.7257 15.9999C92.9711 15.9999 91.4774 15.3835 90.2447 14.1508C89.0048 12.9109 88.385 11.4139 88.385 9.65926C88.385 7.91138 89.0048 6.41772 90.2447 5.1778C91.4774 3.93741 92.9711 3.31769 94.7257 3.31769C95.8351 3.31769 96.8765 3.59349 97.8473 4.14366C98.8191 4.69575 99.5918 5.45313 100.165 6.41772L100.795 7.46146L92.0396 12.519C92.7931 13.2303 93.6886 13.5853 94.7257 13.5853C95.495 13.5853 96.2126 13.4184 96.8798 13.085C97.5533 12.7444 98.1049 12.2729 98.5322 11.6714L100.599 12.9109C99.9539 13.8683 99.1088 14.6218 98.0646 15.1734Z" fill="#1F2E44"/>
</svg>
