<svg width="198" height="36" viewBox="0 0 198 36" fill="none" xmlns="http://www.w3.org/2000/svg">
<path d="M157.824 10.544H162.144V20.192H157.824V10.544ZM154.704 22.688H165.264V8.048H154.704V22.688ZM174.552 14.288H171.336V5.984H168.168V28.064H171.336V16.904H174.552V14.288ZM195.094 5.96H192.094V20.72H195.094V5.96ZM187.534 14.576V18.752H190.486V6.32H187.534V12.056H185.302C185.638 10.712 185.806 9.248 185.806 7.64H177.118V10.16H182.662C182.614 10.736 182.494 11.312 182.35 11.84L176.206 12.152L176.614 14.672L181.27 14.144C180.214 15.728 178.534 17.048 175.942 18.128L177.454 20.384C180.862 18.872 183.022 16.976 184.294 14.576H187.534ZM188.974 19.544H185.806V19.928C185.806 22.328 183.502 24.872 178.702 25.52L179.926 27.992C183.454 27.464 186.022 25.904 187.39 23.792C188.734 25.904 191.302 27.464 194.854 27.992L196.054 25.52C191.278 24.872 188.974 22.328 188.974 19.928V19.544Z" fill="#1F2E44"/>
<path d="M12.0014 19.0405C12.5992 19.0405 12.9957 18.422 12.7468 17.878L10.8727 13.803C10.5707 13.1459 10.268 12.3336 9.96529 11.3635C9.66329 12.3336 9.36128 13.1459 9.05859 13.803L7.18519 17.878C6.93558 18.422 7.33274 19.0405 7.93055 19.0405H12.0014ZM4.79879 23.0714L3.17224 26.5968C2.90057 27.1857 2.31173 27.5621 1.66359 27.5621C0.454877 27.5621 -0.349092 26.3134 0.150803 25.2137L8.4532 6.93819C9.04273 5.63916 10.8879 5.63916 11.4781 6.93819L19.7812 25.2137C20.2804 26.3134 19.4764 27.5621 18.2684 27.5621H18.2553C17.6058 27.5621 17.0155 27.1836 16.7452 26.5934L15.1325 23.0748C14.8608 22.4839 14.2713 22.1054 13.6218 22.1054H6.30744C5.6593 22.1054 5.07046 22.4825 4.79879 23.0714Z" fill="#1F2E44"/>
<path d="M23.5361 22.6522C24.138 22.6522 24.7213 22.9521 25.0006 23.4844C25.1626 23.794 25.426 24.0588 25.7908 24.278C26.3741 24.6331 27.0877 24.8103 27.9324 24.8103C28.7867 24.8103 29.5059 24.6331 30.0892 24.278C30.747 23.8822 31.0752 23.3403 31.0752 22.6522C31.0752 22.1109 30.7042 21.6675 29.9651 21.3235C29.5265 21.1152 28.7136 20.8649 27.5256 20.5726C25.4619 20.0624 24.0442 19.5514 23.2727 19.0405C21.9805 18.1759 21.3345 16.8672 21.3345 15.1165C21.3345 13.8657 21.7303 12.7915 22.5225 11.8951C23.2417 11.0932 24.2159 10.5044 25.4467 10.1286C26.2486 9.88863 27.0774 9.76866 27.9324 9.76866C28.797 9.76866 29.6258 9.88863 30.4181 10.1286C31.6585 10.5044 32.6383 11.0932 33.3575 11.8951C33.5298 12.0902 33.6829 12.2936 33.8181 12.5046C34.5372 13.6341 33.6767 15.1165 32.3377 15.1165C31.7385 15.1165 31.1593 14.82 30.8773 14.2912C30.7153 13.9864 30.4526 13.7251 30.0892 13.5058C29.5059 13.1411 28.7867 12.9583 27.9324 12.9583C27.0877 12.9583 26.3741 13.1411 25.7908 13.5058C25.1337 13.9023 24.8055 14.4387 24.8055 15.1165C24.8055 15.6585 25.175 16.1066 25.9149 16.461C26.3527 16.6693 27.1608 16.9196 28.3392 17.2112C30.4133 17.7118 31.8357 18.2221 32.6073 18.7433C33.8994 19.6094 34.5462 20.9118 34.5462 22.6522C34.5462 23.914 34.1497 24.993 33.3575 25.8887C32.6383 26.6913 31.6585 27.2753 30.4181 27.6401C29.6258 27.88 28.797 28 27.9324 28C27.0774 28 26.2486 27.88 25.4467 27.6401C24.2159 27.2753 23.2417 26.6913 22.5225 25.8887C22.346 25.6895 22.1888 25.4805 22.0516 25.2626C21.3386 24.1305 22.1957 22.6522 23.5333 22.6522H23.5361Z" fill="#1F2E44"/>
<path d="M38.6411 22.6522C39.243 22.6522 39.8263 22.9521 40.1056 23.4844C40.2676 23.794 40.531 24.0588 40.8958 24.278C41.4791 24.6331 42.1927 24.8103 43.0374 24.8103C43.8917 24.8103 44.6108 24.6331 45.1949 24.278C45.852 23.8822 46.1802 23.3403 46.1802 22.6522C46.1802 22.1109 45.8092 21.6675 45.0701 21.3235C44.6315 21.1152 43.8186 20.8649 42.6313 20.5726C40.5669 20.0624 39.1492 19.5514 38.3784 19.0405C37.0855 18.1759 36.4395 16.8672 36.4395 15.1165C36.4395 13.8657 36.8352 12.7915 37.6275 11.8951C38.3466 11.0932 39.3209 10.5044 40.5517 10.1286C41.3536 9.88863 42.1824 9.76866 43.0374 9.76866C43.9027 9.76866 44.7308 9.88863 45.5238 10.1286C46.7642 10.5044 47.7433 11.0932 48.4624 11.8951C48.6348 12.0902 48.7879 12.2936 48.923 12.5046C49.6422 13.6341 48.7817 15.1165 47.4427 15.1165C46.8435 15.1165 46.2643 14.82 45.9823 14.2912C45.8202 13.9864 45.5575 13.7251 45.1949 13.5058C44.6108 13.1411 43.8917 12.9583 43.0374 12.9583C42.1927 12.9583 41.4791 13.1411 40.8958 13.5058C40.2387 13.9023 39.9104 14.4387 39.9104 15.1165C39.9104 15.6585 40.28 16.1066 41.0199 16.461C41.4577 16.6693 42.2658 16.9196 43.4442 17.2112C45.5182 17.7118 46.9414 18.2221 47.7123 18.7433C49.0051 19.6094 49.6512 20.9118 49.6512 22.6522C49.6512 23.914 49.2547 24.993 48.4624 25.8887C47.7433 26.6913 46.7642 27.2753 45.5238 27.6401C44.7308 27.88 43.9027 28 43.0374 28C42.1824 28 41.3536 27.88 40.5517 27.6401C39.3209 27.2753 38.3466 26.6913 37.6275 25.8887C37.451 25.6895 37.2938 25.4805 37.1565 25.2626C36.4436 24.1305 37.3007 22.6522 38.6383 22.6522H38.6411Z" fill="#1F2E44"/>
<path d="M54.9683 19.9636L64.2084 14.6323C63.9168 14.3814 63.6093 14.1628 63.2859 13.9746C62.4316 13.4953 61.5042 13.2554 60.503 13.2554C58.8316 13.2554 57.4285 13.8808 56.2929 15.1309C55.6082 15.8859 55.1338 16.8333 54.9538 17.8365C54.8242 18.5667 54.8256 19.2748 54.9683 19.9636ZM65.3027 26.8119C63.8023 27.6034 62.202 27.9999 60.503 27.9999C57.9801 27.9999 55.833 27.1139 54.0609 25.3418C52.2785 23.5594 51.3877 21.4075 51.3877 18.8852C51.3877 16.3727 52.2785 14.2255 54.0609 12.4431C55.833 10.6601 57.9801 9.76923 60.503 9.76923C62.0979 9.76923 63.5934 10.1657 64.9904 10.9566C66.3873 11.7502 67.4967 12.8389 68.3207 14.2255L69.2274 15.7259L56.6411 22.9961C57.725 24.0186 59.0123 24.5289 60.503 24.5289C61.6076 24.5289 62.6398 24.2889 63.5989 23.8097C64.5677 23.3202 65.3599 22.6424 65.975 21.7777L68.9461 23.5594C68.018 24.9357 66.8045 26.0189 65.3027 26.8119Z" fill="#1F2E44"/>
<path d="M74.0301 10.2074V11.2706C75.0306 10.2695 76.422 9.76888 78.2044 9.76888C80.5915 9.76888 82.478 10.6342 83.8646 12.3642C84.1031 12.6772 84.3231 13.011 84.521 13.3654C85.438 10.9679 87.2618 9.76888 89.9929 9.76888C92.391 9.76888 94.2824 10.6342 95.669 12.3642C96.9825 14.0121 97.6389 16.1848 97.6389 18.8849V25.8262C97.6389 26.7853 96.8618 27.5624 95.9034 27.5624C94.945 27.5624 94.1679 26.7853 94.1679 25.8262V18.8849C94.1679 16.9763 93.7666 15.5228 92.964 14.5224C92.2766 13.6681 91.2851 13.2399 89.9929 13.2399C88.7111 13.2399 87.7265 13.6681 87.0384 14.5224C86.2351 15.5228 85.8345 16.9763 85.8345 18.8849V25.8262C85.8345 26.7853 85.0574 27.5624 84.099 27.5624C83.1406 27.5624 82.3635 26.7853 82.3635 25.8262V18.8849C82.3635 16.9763 81.9622 15.5228 81.1589 14.5224C80.4715 13.6681 79.4862 13.2399 78.2044 13.2399C76.9122 13.2399 75.9214 13.6681 75.2333 14.5224C74.4307 15.5228 74.0301 16.9722 74.0301 18.869V25.8262C74.0301 26.7853 73.253 27.5624 72.2939 27.5624C71.3362 27.5624 70.5591 26.7853 70.5591 25.8262V11.9429C70.5591 10.9845 71.3362 10.2074 72.2939 10.2074H74.0301Z" fill="#1F2E44"/>
<path d="M113.36 14.9997C112.317 13.9102 110.841 13.269 109.333 13.2566C107.44 13.2393 105.889 14.0178 104.679 15.592C103.982 16.4973 103.629 17.626 103.629 18.7672C103.629 20.0703 104.004 21.3763 104.831 22.3836C106.016 23.8268 107.513 24.5425 109.323 24.5287C110.83 24.5177 112.309 23.8799 113.353 22.7925C114.396 21.7065 114.917 20.4034 114.917 18.8851C114.917 17.3792 114.398 16.0843 113.36 14.9997ZM103.629 5.00039V12.3175C105.176 10.4351 107.319 9.59529 110.058 9.79869C111.956 9.94004 113.788 10.7109 115.214 11.972C117.33 13.8427 118.389 16.1477 118.389 18.8851C118.389 21.4073 117.497 23.5592 115.715 25.3416C113.932 27.1137 111.785 27.9997 109.273 27.9997C106.906 27.9997 105.025 27.1557 103.629 25.4671V27.5625H100.158V5.00039H103.629Z" fill="#1F2E44"/>
<path d="M124.535 6.73623V25.8267C124.535 26.7851 123.758 27.5622 122.799 27.5622C121.841 27.5622 121.064 26.7851 121.064 25.8267V6.73623C121.064 5.77712 121.841 5.00004 122.799 5.00004C123.758 5.00004 124.535 5.77712 124.535 6.73623Z" fill="#1F2E44"/>
<path d="M130.634 19.9636L139.874 14.6323C139.583 14.3814 139.274 14.1628 138.952 13.9746C138.097 13.4953 137.17 13.2554 136.168 13.2554C134.605 13.2554 133.276 13.8029 132.182 14.8971C131.077 16.0031 130.525 17.3318 130.525 18.8852C130.525 19.25 130.561 19.6092 130.634 19.9636ZM140.968 26.8119C139.467 27.6034 137.867 27.9999 136.168 27.9999C133.646 27.9999 131.499 27.1139 129.727 25.3418C127.945 23.5594 127.054 21.4075 127.054 18.8852C127.054 16.3727 127.945 14.2255 129.727 12.4431C131.499 10.6601 133.646 9.76923 136.168 9.76923C137.763 9.76923 139.26 10.1657 140.656 10.9566C142.053 11.7502 143.163 12.8389 143.987 14.2255L144.893 15.7259L132.307 22.9961C133.39 24.0186 134.678 24.5289 136.168 24.5289C137.274 24.5289 138.306 24.2889 139.265 23.8097C140.233 23.3202 141.026 22.6424 141.64 21.7777L144.611 23.5594C143.684 24.9357 142.469 26.0189 140.968 26.8119Z" fill="#1F2E44"/>
</svg>
