<svg width="32" height="32" viewBox="0 0 32 32" fill="none" xmlns="http://www.w3.org/2000/svg">
<path fill-rule="evenodd" clip-rule="evenodd" d="M16 9C16.5523 9 17 9.44772 17 10V15.5858L18.2929 14.2929C18.6834 13.9024 19.3166 13.9024 19.7071 14.2929C20.0976 14.6834 20.0976 15.3166 19.7071 15.7071L16.7071 18.7071C16.5196 18.8947 16.2652 19 16 19C15.7348 19 15.4804 18.8947 15.2929 18.7071L12.2929 15.7071C11.9024 15.3166 11.9024 14.6834 12.2929 14.2929C12.6834 13.9024 13.3166 13.9024 13.7071 14.2929L15 15.5858V10C15 9.44772 15.4477 9 16 9ZM10 16C10.5523 16 11 16.4477 11 17V20C11 20.5523 11.4477 21 12 21H20C20.5523 21 21 20.5523 21 20V17C21 16.4477 21.4477 16 22 16C22.5523 16 23 16.4477 23 17V20C23 21.6569 21.6569 23 20 23H12C10.3432 23 9 21.6569 9 20V17C9 16.4477 9.44772 16 10 16Z" fill="#6096FF"/>
</svg>
